<?xml version="1.0" encoding="UTF-8" standalone="no"?>
<!DOCTYPE svg PUBLIC "-//W3C//DTD SVG 1.1//EN"
 "http://www.w3.org/Graphics/SVG/1.1/DTD/svg11.dtd">
<!-- Generated by graphviz version 2.40.1 (20161225.0304)
 -->
<!-- Title: dependencies Pages: 1 -->
<svg width="504pt" height="211pt"
 viewBox="0.00 0.00 504.00 211.00" xmlns="http://www.w3.org/2000/svg" xmlns:xlink="http://www.w3.org/1999/xlink">
<g id="graph0" class="graph" transform="scale(1 1) rotate(0) translate(4 207)">
<title>dependencies</title>
<polygon fill="#ffffff" stroke="transparent" points="-4,4 -4,-207 500,-207 500,4 -4,4"/>
<text text-anchor="start" x="227.0091" y="-42.4" font-family="sans-serif" font-weight="bold" font-size="14.00" fill="#000000">Legend</text>
<polygon fill="#ffffb3" stroke="transparent" points="14,-10 14,-30 34,-30 34,-10 14,-10"/>
<text text-anchor="start" x="37.629" y="-15.4" font-family="sans-serif" font-size="14.00" fill="#000000"> &#160;Declarations</text>
<polygon fill="#8dd3c7" stroke="transparent" points="127,-10 127,-30 147,-30 147,-10 127,-10"/>
<text text-anchor="start" x="150.7251" y="-15.4" font-family="sans-serif" font-size="14.00" fill="#000000"> &#160;Module</text>
<polygon fill="#80b1d3" stroke="transparent" points="213,-10 213,-30 233,-30 233,-10 213,-10"/>
<text text-anchor="start" x="236.7812" y="-15.4" font-family="sans-serif" font-size="14.00" fill="#000000"> &#160;Bootstrap</text>
<polygon fill="#fdb462" stroke="transparent" points="310,-10 310,-30 330,-30 330,-10 310,-10"/>
<text text-anchor="start" x="333.6732" y="-15.4" font-family="sans-serif" font-size="14.00" fill="#000000"> &#160;Providers</text>
<polygon fill="#fb8072" stroke="transparent" points="406,-10 406,-30 426,-30 426,-10 406,-10"/>
<text text-anchor="start" x="429.7258" y="-15.4" font-family="sans-serif" font-size="14.00" fill="#000000"> &#160;Exports</text>
<g id="clust1" class="cluster">
<title>cluster_AppModule</title>
<polygon fill="none" stroke="#000000" stroke-dasharray="1,5" points="17.5,-70 17.5,-195 478.5,-195 478.5,-70 17.5,-70"/>
</g>
<g id="clust3" class="cluster">
<title>cluster_AppModule_imports</title>
<polygon fill="none" stroke="#000000" points="25.5,-78 25.5,-130 470.5,-130 470.5,-78 25.5,-78"/>
</g>
<!-- AuthModule -->
<g id="node1" class="node">
<title>AuthModule</title>
<polygon fill="#8dd3c7" stroke="#000000" points="462.0482,-122 459.0482,-126 438.0482,-126 435.0482,-122 374.9518,-122 374.9518,-86 462.0482,-86 462.0482,-122"/>
<text text-anchor="middle" x="418.5" y="-99.8" font-family="Times,serif" font-size="14.00" fill="#000000">AuthModule</text>
</g>
<!-- AppModule -->
<g id="node5" class="node">
<title>AppModule</title>
<polygon fill="#8dd3c7" stroke="#000000" points="291.1571,-187 288.1571,-191 267.1571,-191 264.1571,-187 207.8429,-187 207.8429,-151 291.1571,-151 291.1571,-187"/>
<text text-anchor="middle" x="249.5" y="-164.8" font-family="Times,serif" font-size="14.00" fill="#000000">AppModule</text>
</g>
<!-- AuthModule&#45;&gt;AppModule -->
<g id="edge1" class="edge">
<title>AuthModule&#45;&gt;AppModule</title>
<path fill="none" stroke="#000000" d="M418.5,-122.1061C418.5,-141.3391 418.5,-169 418.5,-169 418.5,-169 301.2753,-169 301.2753,-169"/>
<polygon fill="#000000" stroke="#000000" points="301.2753,-165.5001 291.2753,-169 301.2753,-172.5001 301.2753,-165.5001"/>
</g>
<!-- BoardsModule -->
<g id="node2" class="node">
<title>BoardsModule</title>
<polygon fill="#8dd3c7" stroke="#000000" points="357.2064,-122 354.2064,-126 333.2064,-126 330.2064,-122 257.7936,-122 257.7936,-86 357.2064,-86 357.2064,-122"/>
<text text-anchor="middle" x="307.5" y="-99.8" font-family="Times,serif" font-size="14.00" fill="#000000">BoardsModule</text>
</g>
<!-- BoardsModule&#45;&gt;AppModule -->
<g id="edge2" class="edge">
<title>BoardsModule&#45;&gt;AppModule</title>
<path fill="none" stroke="#000000" d="M274.6126,-122.1061C274.6126,-122.1061 274.6126,-140.991 274.6126,-140.991"/>
<polygon fill="#000000" stroke="#000000" points="271.1126,-140.9909 274.6126,-150.991 278.1126,-140.991 271.1126,-140.9909"/>
</g>
<!-- TeamsModule -->
<g id="node3" class="node">
<title>TeamsModule</title>
<polygon fill="#8dd3c7" stroke="#000000" points="239.8669,-122 236.8669,-126 215.8669,-126 212.8669,-122 143.1331,-122 143.1331,-86 239.8669,-86 239.8669,-122"/>
<text text-anchor="middle" x="191.5" y="-99.8" font-family="Times,serif" font-size="14.00" fill="#000000">TeamsModule</text>
</g>
<!-- TeamsModule&#45;&gt;AppModule -->
<g id="edge3" class="edge">
<title>TeamsModule&#45;&gt;AppModule</title>
<path fill="none" stroke="#000000" d="M223.8026,-122.1061C223.8026,-122.1061 223.8026,-140.991 223.8026,-140.991"/>
<polygon fill="#000000" stroke="#000000" points="220.3027,-140.9909 223.8026,-150.991 227.3027,-140.991 220.3027,-140.9909"/>
</g>
<!-- UsersModule -->
<g id="node4" class="node">
<title>UsersModule</title>
<polygon fill="#8dd3c7" stroke="#000000" points="125.4218,-122 122.4218,-126 101.4218,-126 98.4218,-122 33.5782,-122 33.5782,-86 125.4218,-86 125.4218,-122"/>
<text text-anchor="middle" x="79.5" y="-99.8" font-family="Times,serif" font-size="14.00" fill="#000000">UsersModule</text>
</g>
<!-- UsersModule&#45;&gt;AppModule -->
<g id="edge4" class="edge">
<title>UsersModule&#45;&gt;AppModule</title>
<path fill="none" stroke="#000000" d="M79.5,-122.1061C79.5,-141.3391 79.5,-169 79.5,-169 79.5,-169 197.4775,-169 197.4775,-169"/>
<polygon fill="#000000" stroke="#000000" points="197.4776,-172.5001 207.4775,-169 197.4775,-165.5001 197.4776,-172.5001"/>
</g>
</g>
</svg>
