<?xml version="1.0" encoding="UTF-8" standalone="no"?>
<!DOCTYPE svg PUBLIC "-//W3C//DTD SVG 1.1//EN"
 "http://www.w3.org/Graphics/SVG/1.1/DTD/svg11.dtd">
<!-- Generated by graphviz version 2.40.1 (20161225.0304)
 -->
<!-- Title: dependencies Pages: 1 -->
<svg width="1201pt" height="363pt"
 viewBox="0.00 0.00 1201.00 363.00" xmlns="http://www.w3.org/2000/svg" xmlns:xlink="http://www.w3.org/1999/xlink">
<g id="graph0" class="graph" transform="scale(1 1) rotate(0) translate(4 359)">
<title>dependencies</title>
<polygon fill="#ffffff" stroke="transparent" points="-4,4 -4,-359 1197,-359 1197,4 -4,4"/>
<text text-anchor="start" x="575.5091" y="-42.4" font-family="sans-serif" font-weight="bold" font-size="14.00" fill="#000000">Legend</text>
<polygon fill="#ffffb3" stroke="transparent" points="362.5,-10 362.5,-30 382.5,-30 382.5,-10 362.5,-10"/>
<text text-anchor="start" x="386.129" y="-15.4" font-family="sans-serif" font-size="14.00" fill="#000000"> &#160;Declarations</text>
<polygon fill="#8dd3c7" stroke="transparent" points="475.5,-10 475.5,-30 495.5,-30 495.5,-10 475.5,-10"/>
<text text-anchor="start" x="499.2251" y="-15.4" font-family="sans-serif" font-size="14.00" fill="#000000"> &#160;Module</text>
<polygon fill="#80b1d3" stroke="transparent" points="561.5,-10 561.5,-30 581.5,-30 581.5,-10 561.5,-10"/>
<text text-anchor="start" x="585.2812" y="-15.4" font-family="sans-serif" font-size="14.00" fill="#000000"> &#160;Bootstrap</text>
<polygon fill="#fdb462" stroke="transparent" points="658.5,-10 658.5,-30 678.5,-30 678.5,-10 658.5,-10"/>
<text text-anchor="start" x="682.1732" y="-15.4" font-family="sans-serif" font-size="14.00" fill="#000000"> &#160;Providers</text>
<polygon fill="#fb8072" stroke="transparent" points="754.5,-10 754.5,-30 774.5,-30 774.5,-10 754.5,-10"/>
<text text-anchor="start" x="778.2258" y="-15.4" font-family="sans-serif" font-size="14.00" fill="#000000"> &#160;Exports</text>
<g id="clust1" class="cluster">
<title>cluster_AppModule</title>
<polygon fill="none" stroke="#000000" stroke-dasharray="1,5" points="561,-146 561,-347 917,-347 917,-146 561,-146"/>
</g>
<g id="clust3" class="cluster">
<title>cluster_AppModule_imports</title>
<polygon fill="none" stroke="#000000" points="569,-154 569,-282 909,-282 909,-154 569,-154"/>
</g>
<g id="clust7" class="cluster">
<title>cluster_AuthModule</title>
<polygon fill="none" stroke="#000000" stroke-dasharray="1,5" points="8,-146 8,-214 553,-214 553,-146 8,-146"/>
</g>
<g id="clust10" class="cluster">
<title>cluster_AuthModule_exports</title>
<polygon fill="none" stroke="#000000" points="439,-154 439,-206 545,-206 545,-154 439,-154"/>
</g>
<g id="clust12" class="cluster">
<title>cluster_AuthModule_providers</title>
<polygon fill="none" stroke="#000000" points="16,-154 16,-206 431,-206 431,-154 16,-154"/>
</g>
<g id="clust13" class="cluster">
<title>cluster_BoardsModule</title>
<polygon fill="none" stroke="#000000" stroke-dasharray="1,5" points="547,-70 547,-138 707,-138 707,-70 547,-70"/>
</g>
<g id="clust18" class="cluster">
<title>cluster_BoardsModule_providers</title>
<polygon fill="none" stroke="#000000" points="555,-78 555,-130 699,-130 699,-78 555,-78"/>
</g>
<g id="clust25" class="cluster">
<title>cluster_UsersModule</title>
<polygon fill="none" stroke="#000000" stroke-dasharray="1,5" points="925,-222 925,-290 1185,-290 1185,-222 925,-222"/>
</g>
<g id="clust28" class="cluster">
<title>cluster_UsersModule_exports</title>
<polygon fill="none" stroke="#000000" points="1073,-230 1073,-282 1177,-282 1177,-230 1073,-230"/>
</g>
<g id="clust30" class="cluster">
<title>cluster_UsersModule_providers</title>
<polygon fill="none" stroke="#000000" points="933,-230 933,-282 1065,-282 1065,-230 933,-230"/>
</g>
<!-- AuthModule -->
<g id="node1" class="node">
<title>AuthModule</title>
<polygon fill="#8dd3c7" stroke="#000000" points="664.5482,-274 661.5482,-278 640.5482,-278 637.5482,-274 577.4518,-274 577.4518,-238 664.5482,-238 664.5482,-274"/>
<text text-anchor="middle" x="621" y="-251.8" font-family="Times,serif" font-size="14.00" fill="#000000">AuthModule</text>
</g>
<!-- AppModule -->
<g id="node5" class="node">
<title>AppModule</title>
<polygon fill="#8dd3c7" stroke="#000000" points="759.6571,-339 756.6571,-343 735.6571,-343 732.6571,-339 676.3429,-339 676.3429,-303 759.6571,-303 759.6571,-339"/>
<text text-anchor="middle" x="718" y="-316.8" font-family="Times,serif" font-size="14.00" fill="#000000">AppModule</text>
</g>
<!-- AuthModule&#45;&gt;AppModule -->
<g id="edge1" class="edge">
<title>AuthModule&#45;&gt;AppModule</title>
<path fill="none" stroke="#000000" d="M664.8157,-265C675.3357,-265 683.5968,-265 683.5968,-265 683.5968,-265 683.5968,-292.973 683.5968,-292.973"/>
<polygon fill="#000000" stroke="#000000" points="680.0969,-292.973 683.5968,-302.973 687.0969,-292.973 680.0969,-292.973"/>
</g>
<!-- AuthService  -->
<g id="node6" class="node">
<title>AuthService </title>
<polygon fill="#fb8072" stroke="#000000" points="536.9761,-198 447.0239,-198 447.0239,-162 536.9761,-162 536.9761,-198"/>
<text text-anchor="middle" x="492" y="-175.8" font-family="Times,serif" font-size="14.00" fill="#000000">AuthService </text>
</g>
<!-- AuthModule&#45;&gt;AuthService  -->
<g id="edge6" class="edge">
<title>AuthModule&#45;&gt;AuthService </title>
<path fill="none" stroke="#000000" stroke-dasharray="5,2" d="M577.3265,-246C539.9026,-246 492,-246 492,-246 492,-246 492,-208.0348 492,-208.0348"/>
<polygon fill="#000000" stroke="#000000" points="495.5001,-208.0348 492,-198.0348 488.5001,-208.0348 495.5001,-208.0348"/>
</g>
<!-- BoardsModule -->
<g id="node2" class="node">
<title>BoardsModule</title>
<polygon fill="#8dd3c7" stroke="#000000" points="676.7064,-198 673.7064,-202 652.7064,-202 649.7064,-198 577.2936,-198 577.2936,-162 676.7064,-162 676.7064,-198"/>
<text text-anchor="middle" x="627" y="-175.8" font-family="Times,serif" font-size="14.00" fill="#000000">BoardsModule</text>
</g>
<!-- BoardsModule&#45;&gt;AppModule -->
<g id="edge2" class="edge">
<title>BoardsModule&#45;&gt;AppModule</title>
<path fill="none" stroke="#000000" d="M670.4727,-198.1446C670.4727,-236.2265 670.4727,-321 670.4727,-321 670.4727,-321 671.0554,-321 671.0554,-321"/>
<polygon fill="#000000" stroke="#000000" points="666.3005,-324.5002 676.3004,-321 666.3004,-317.5002 666.3005,-324.5002"/>
</g>
<!-- TeamsModule -->
<g id="node3" class="node">
<title>TeamsModule</title>
<polygon fill="#8dd3c7" stroke="#000000" points="791.3669,-198 788.3669,-202 767.3669,-202 764.3669,-198 694.6331,-198 694.6331,-162 791.3669,-162 791.3669,-198"/>
<text text-anchor="middle" x="743" y="-175.8" font-family="Times,serif" font-size="14.00" fill="#000000">TeamsModule</text>
</g>
<!-- TeamsModule&#45;&gt;AppModule -->
<g id="edge3" class="edge">
<title>TeamsModule&#45;&gt;AppModule</title>
<path fill="none" stroke="#000000" d="M727.1974,-198.1446C727.1974,-198.1446 727.1974,-292.925 727.1974,-292.925"/>
<polygon fill="#000000" stroke="#000000" points="723.6975,-292.925 727.1974,-302.925 730.6975,-292.925 723.6975,-292.925"/>
</g>
<!-- UsersModule -->
<g id="node4" class="node">
<title>UsersModule</title>
<polygon fill="#8dd3c7" stroke="#000000" points="900.9218,-198 897.9218,-202 876.9218,-202 873.9218,-198 809.0782,-198 809.0782,-162 900.9218,-162 900.9218,-198"/>
<text text-anchor="middle" x="855" y="-175.8" font-family="Times,serif" font-size="14.00" fill="#000000">UsersModule</text>
</g>
<!-- UsersModule&#45;&gt;AuthModule -->
<g id="edge5" class="edge">
<title>UsersModule&#45;&gt;AuthModule</title>
<path fill="none" stroke="#000000" d="M832.1448,-198.308C832.1448,-218.1455 832.1448,-247 832.1448,-247 832.1448,-247 674.7493,-247 674.7493,-247"/>
<polygon fill="#000000" stroke="#000000" points="674.7494,-243.5001 664.7493,-247 674.7493,-250.5001 674.7494,-243.5001"/>
</g>
<!-- UsersModule&#45;&gt;AppModule -->
<g id="edge4" class="edge">
<title>UsersModule&#45;&gt;AppModule</title>
<path fill="none" stroke="#000000" d="M855,-198.1446C855,-236.2265 855,-321 855,-321 855,-321 769.8489,-321 769.8489,-321"/>
<polygon fill="#000000" stroke="#000000" points="769.849,-317.5001 759.8489,-321 769.8489,-324.5001 769.849,-317.5001"/>
</g>
<!-- UserService  -->
<g id="node11" class="node">
<title>UserService </title>
<polygon fill="#fb8072" stroke="#000000" points="1168.9041,-274 1081.0959,-274 1081.0959,-238 1168.9041,-238 1168.9041,-274"/>
<text text-anchor="middle" x="1125" y="-251.8" font-family="Times,serif" font-size="14.00" fill="#000000">UserService </text>
</g>
<!-- UsersModule&#45;&gt;UserService  -->
<g id="edge11" class="edge">
<title>UsersModule&#45;&gt;UserService </title>
<path fill="none" stroke="#000000" stroke-dasharray="5,2" d="M900.8018,-180C977.834,-180 1125,-180 1125,-180 1125,-180 1125,-227.9891 1125,-227.9891"/>
<polygon fill="#000000" stroke="#000000" points="1121.5001,-227.989 1125,-237.9891 1128.5001,-227.9891 1121.5001,-227.989"/>
</g>
<!-- AuthService -->
<g id="node7" class="node">
<title>AuthService</title>
<ellipse fill="#fdb462" stroke="#000000" cx="83" cy="-180" rx="59.1083" ry="18"/>
<text text-anchor="middle" x="83" y="-175.8" font-family="Times,serif" font-size="14.00" fill="#000000">AuthService</text>
</g>
<!-- AuthService&#45;&gt;AuthModule -->
<g id="edge7" class="edge">
<title>AuthService&#45;&gt;AuthModule</title>
<path fill="none" stroke="#000000" d="M83,-198.0265C83,-223.5093 83,-267 83,-267 83,-267 567.4289,-267 567.4289,-267"/>
<polygon fill="#000000" stroke="#000000" points="567.429,-270.5001 577.4289,-267 567.4289,-263.5001 567.429,-270.5001"/>
</g>
<!-- JwtStrategy -->
<g id="node8" class="node">
<title>JwtStrategy</title>
<ellipse fill="#fdb462" stroke="#000000" cx="366" cy="-180" rx="56.7561" ry="18"/>
<text text-anchor="middle" x="366" y="-175.8" font-family="Times,serif" font-size="14.00" fill="#000000">JwtStrategy</text>
</g>
<!-- JwtStrategy&#45;&gt;AuthModule -->
<g id="edge8" class="edge">
<title>JwtStrategy&#45;&gt;AuthModule</title>
<path fill="none" stroke="#000000" d="M366,-198.0449C366,-219.6623 366,-253 366,-253 366,-253 567.1639,-253 567.1639,-253"/>
<polygon fill="#000000" stroke="#000000" points="567.164,-256.5001 577.1639,-253 567.1639,-249.5001 567.164,-256.5001"/>
</g>
<!-- LocalStrategy -->
<g id="node9" class="node">
<title>LocalStrategy</title>
<ellipse fill="#fdb462" stroke="#000000" cx="226" cy="-180" rx="65.4053" ry="18"/>
<text text-anchor="middle" x="226" y="-175.8" font-family="Times,serif" font-size="14.00" fill="#000000">LocalStrategy</text>
</g>
<!-- LocalStrategy&#45;&gt;AuthModule -->
<g id="edge9" class="edge">
<title>LocalStrategy&#45;&gt;AuthModule</title>
<path fill="none" stroke="#000000" d="M226,-198.1532C226,-221.7566 226,-260 226,-260 226,-260 567.2189,-260 567.2189,-260"/>
<polygon fill="#000000" stroke="#000000" points="567.2189,-263.5001 577.2189,-260 567.2188,-256.5001 567.2189,-263.5001"/>
</g>
<!-- BoardService -->
<g id="node10" class="node">
<title>BoardService</title>
<ellipse fill="#fdb462" stroke="#000000" cx="627" cy="-104" rx="63.6813" ry="18"/>
<text text-anchor="middle" x="627" y="-99.8" font-family="Times,serif" font-size="14.00" fill="#000000">BoardService</text>
</g>
<!-- BoardService&#45;&gt;BoardsModule -->
<g id="edge10" class="edge">
<title>BoardService&#45;&gt;BoardsModule</title>
<path fill="none" stroke="#000000" d="M627,-122.0109C627,-122.0109 627,-151.855 627,-151.855"/>
<polygon fill="#000000" stroke="#000000" points="623.5001,-151.8549 627,-161.855 630.5001,-151.855 623.5001,-151.8549"/>
</g>
<!-- UserService -->
<g id="node12" class="node">
<title>UserService</title>
<ellipse fill="#fdb462" stroke="#000000" cx="999" cy="-256" rx="58.4415" ry="18"/>
<text text-anchor="middle" x="999" y="-251.8" font-family="Times,serif" font-size="14.00" fill="#000000">UserService</text>
</g>
<!-- UserService&#45;&gt;UsersModule -->
<g id="edge12" class="edge">
<title>UserService&#45;&gt;UsersModule</title>
<path fill="none" stroke="#000000" d="M940.5567,-256C909.5777,-256 877.8552,-256 877.8552,-256 877.8552,-256 877.8552,-208.0109 877.8552,-208.0109"/>
<polygon fill="#000000" stroke="#000000" points="881.3553,-208.0109 877.8552,-198.0109 874.3553,-208.011 881.3553,-208.0109"/>
</g>
</g>
</svg>
